<?xml version="1.0" encoding="UTF-8"?>
<svg version="1.1" xmlns="http://www.w3.org/2000/svg" width="53" height="64">
<path d="M0 0 C3.18637361 0.64073817 4.95955678 2.09960721 7.15625 4.43359375 C9.09213407 8.30536189 8.63234565 13.07563333 8.875 17.34375 C8.81196925 20.30267861 8.81196925 20.30267861 10.15625 21.43359375 C12.00516946 21.66723256 13.86113031 21.8466301 15.71875 21.99609375 C16.73066406 22.07988281 17.74257813 22.16367187 18.78515625 22.25 C19.95884766 22.34087891 19.95884766 22.34087891 21.15625 22.43359375 C21.10984375 21.33660156 21.0634375 20.23960938 21.015625 19.109375 C20.9780921 17.65497525 20.94169357 16.20054592 20.90625 14.74609375 C20.85597656 13.66424805 20.85597656 13.66424805 20.8046875 12.56054688 C20.73333596 8.65405032 20.88090281 6.86425041 23.046875 3.4765625 C26.5608111 0.07325032 29.23882806 0.10266592 33.9609375 0.140625 C36.15625 0.43359375 36.15625 0.43359375 38.65625 2.30859375 C41.51638664 6.36045399 41.44251155 9.9179153 41.53125 14.74609375 C41.58732422 15.88594727 41.58732422 15.88594727 41.64453125 17.04882812 C41.71044542 21.2636733 41.52151669 22.94868164 38.90234375 26.42578125 C36.25954513 28.35806929 35.04005282 29.08356988 31.84375 29.24609375 C30.0184375 29.33890625 30.0184375 29.33890625 28.15625 29.43359375 C28.15625 31.41359375 28.15625 33.39359375 28.15625 35.43359375 C31.03710938 35.58007812 31.03710938 35.58007812 33.91796875 35.7265625 C37.44313628 36.8400971 38.93782633 38.50128288 41.15625 41.43359375 C41.79280981 44.31717702 41.72240934 47.0571107 41.59375 49.99609375 C41.58794922 50.75083984 41.58214844 51.50558594 41.57617188 52.28320312 C41.42130006 59.31438339 41.42130006 59.31438339 39.15625 62.43359375 C35.13766405 65.11265105 31.87983279 65.12970069 27.15625 64.43359375 C24.28595131 62.63965707 22.66493362 61.45096099 21.15625 58.43359375 C21.08443179 55.71599267 21.06325494 53.02499987 21.09375 50.30859375 C21.09826172 49.55449219 21.10277344 48.80039062 21.10742188 48.0234375 C21.11921501 46.16012248 21.13715058 44.2968482 21.15625 42.43359375 C19.34331911 42.57396896 17.5309057 42.72104264 15.71875 42.87109375 C14.70941406 42.95230469 13.70007813 43.03351562 12.66015625 43.1171875 C10.21984221 43.16570843 10.21984221 43.16570843 9.15625 44.43359375 C8.95045839 47.92747793 8.83658761 51.41970563 8.73046875 54.91796875 C8.07764291 58.91486162 6.97097383 60.58190357 4.15625 63.43359375 C0.70883453 65.15730149 -3.07410339 64.93666047 -6.84375 64.43359375 C-9.34535818 62.55738762 -10.46320652 61.19468072 -11.84375 58.43359375 C-11.95945235 56.7653852 -12.01329908 55.09270779 -12.03662109 53.4206543 C-12.05268402 52.37584396 -12.06874695 51.33103363 -12.08529663 50.25456238 C-12.12968806 45.47415769 -12.1708088 40.69389259 -12.19384766 35.91333008 C-12.21041456 33.39044983 -12.23771384 30.86761666 -12.27587891 28.3449707 C-12.33058189 24.71150305 -12.35251249 21.07913622 -12.3671875 17.4453125 C-12.38985687 16.31808273 -12.41252625 15.19085297 -12.43588257 14.02946472 C-12.41231412 5.31117871 -12.41231412 5.31117871 -9.45361328 2.22216797 C-5.99676945 -0.14685335 -4.06131713 -0.22337244 0 0 Z M-4.84375 7.43359375 C-4.84375 23.60359375 -4.84375 39.77359375 -4.84375 56.43359375 C-3.52375 57.09359375 -2.20375 57.75359375 -0.84375 58.43359375 C2.38902962 55.20081413 1.55893425 51.10604256 1.71484375 46.6953125 C2.19135657 43.17417794 3.03300238 41.25608398 5.15625 38.43359375 C10.14913761 35.99803882 15.68642519 35.84437111 21.15625 35.43359375 C21.15625 33.45359375 21.15625 31.47359375 21.15625 29.43359375 C19.70992187 29.26923828 19.70992187 29.26923828 18.234375 29.1015625 C16.33945312 28.86373047 16.33945312 28.86373047 14.40625 28.62109375 C13.15328125 28.47027344 11.9003125 28.31945312 10.609375 28.1640625 C7.21070953 27.44511404 5.58135391 26.86458384 3.15625 24.43359375 C1.72597018 20.14275429 1.87600014 15.86862396 1.73046875 11.3671875 C1.47492496 8.34125433 1.47492496 8.34125433 -0.76171875 6.96875 C-2.88423572 6.18058813 -2.88423572 6.18058813 -4.84375 7.43359375 Z M30.15625 6.43359375 C27.79983476 8.34766037 27.79983476 8.34766037 27.9609375 11.69140625 C27.98414063 12.96757812 28.00734375 14.24375 28.03125 15.55859375 C28.04929688 16.83992188 28.06734375 18.12125 28.0859375 19.44140625 C28.10914063 20.42882813 28.13234375 21.41625 28.15625 22.43359375 C31.44700996 22.05455167 31.44700996 22.05455167 34.15625 20.43359375 C34.22883946 18.24719922 34.23998783 16.05858986 34.21875 13.87109375 C34.20972656 12.67355469 34.20070313 11.47601563 34.19140625 10.2421875 C34.17980469 9.31535156 34.16820312 8.38851563 34.15625 7.43359375 C32.26445797 6.75211145 32.26445797 6.75211145 30.15625 6.43359375 Z M28.15625 42.43359375 C28.15625 47.05359375 28.15625 51.67359375 28.15625 56.43359375 C30.13625 57.42359375 30.13625 57.42359375 32.15625 58.43359375 C32.81625 58.10359375 33.47625 57.77359375 34.15625 57.43359375 C34.21011629 55.30886799 34.24898071 53.18375723 34.28125 51.05859375 C34.30445313 49.87523437 34.32765625 48.691875 34.3515625 47.47265625 C34.48491229 44.32205558 34.48491229 44.32205558 32.15625 42.43359375 C30.83625 42.43359375 29.51625 42.43359375 28.15625 42.43359375 Z " fill="#FFFFFF" transform="translate(11.84375,-0.43359375)"/>
</svg>
